<?xml version="1.0" standalone="no"?>
<!DOCTYPE svg PUBLIC "-//W3C//DTD SVG 20010904//EN"
 "http://www.w3.org/TR/2001/REC-SVG-20010904/DTD/svg10.dtd">
<svg version="1.0" xmlns="http://www.w3.org/2000/svg"
 width="1600.000000pt" height="1600.000000pt" viewBox="0 0 1600.000000 1600.000000"
 preserveAspectRatio="xMidYMid meet">
<metadata>
Created by potrace 1.14, written by Peter Selinger 2001-2017
</metadata>
<g transform="translate(0.000000,1600.000000) scale(0.100000,-0.100000)"
fill="#000000" stroke="none">
<path d="M0 8000 l0 -4100 8000 0 8000 0 0 4100 0 4100 -8000 0 -8000 0 0
-4100z m7223 3239 c36 -19 87 -78 87 -100 0 -12 5 -40 11 -63 75 -289 74 -344
-10 -397 -50 -32 -59 -34 -113 -19 -58 16 -95 60 -103 122 -4 29 -11 58 -15
63 -4 6 -12 33 -18 60 -6 28 -18 86 -27 131 -17 77 -17 81 2 122 35 77 121
114 186 81z m1651 -66 c21 -23 37 -52 41 -73 6 -35 -7 -111 -25 -155 -5 -11
-11 -33 -15 -48 -3 -15 -9 -26 -13 -23 -4 2 -7 -10 -6 -27 1 -41 -21 -113 -35
-110 -5 2 -8 -4 -5 -11 14 -37 -73 -109 -102 -85 -12 10 -13 9 -8 -5 7 -19 2
-20 -52 -3 -50 14 -99 60 -90 82 3 9 2 13 -4 10 -6 -4 -10 13 -10 42 0 68 8
93 28 86 14 -4 15 -3 2 6 -12 8 -12 15 -2 46 8 19 14 45 16 58 1 12 15 61 30
107 36 110 70 140 157 140 54 0 60 -3 93 -37z m-659 -577 c55 -9 132 -21 170
-25 39 -5 108 -18 155 -29 47 -11 105 -25 130 -30 108 -25 261 -73 375 -118
33 -13 64 -24 68 -24 5 0 33 -11 63 -25 30 -14 57 -25 59 -25 6 0 212 -102
253 -126 63 -36 207 -142 269 -198 169 -154 338 -415 420 -650 63 -182 125
-507 138 -722 2 -49 10 -174 15 -279 13 -229 29 -287 109 -414 109 -173 157
-236 262 -342 100 -101 108 -112 128 -177 50 -167 12 -232 -190 -330 -37 -18
-80 -35 -98 -38 -35 -7 -35 -15 0 -112 37 -104 17 -192 -57 -240 -19 -12 -33
-26 -31 -30 28 -49 38 -86 33 -116 -8 -43 -42 -86 -67 -86 -18 0 -28 -16 -56
-90 -8 -19 -3 -43 20 -105 40 -111 50 -174 43 -285 -9 -125 -53 -223 -122
-271 -78 -53 -305 -98 -579 -114 -237 -14 -375 -55 -550 -167 -57 -37 -82 -66
-109 -132 -19 -49 -22 -65 -14 -100 9 -38 5 -127 -9 -205 l-6 -34 -461 7
c-542 8 -1569 17 -1844 16 l-193 0 2 51 c3 47 1 53 -24 66 -33 17 -33 18 -6
74 85 174 132 724 110 1273 -6 165 -15 337 -18 381 l-6 80 -54 45 c-103 86
-230 215 -291 298 -34 45 -62 87 -62 91 0 5 -4 11 -8 13 -9 4 -87 121 -136
204 -38 65 -156 301 -156 312 0 3 -11 36 -24 72 -95 258 -138 749 -93 1060 22
152 61 324 93 408 13 34 24 69 24 77 0 9 5 23 10 33 6 9 24 46 40 82 17 36 36
74 43 85 112 188 330 395 602 572 75 48 291 163 307 163 6 0 36 11 67 24 60
25 210 72 251 79 14 3 61 14 105 25 75 19 292 58 360 65 98 9 450 -2 540 -17z
m-2202 -17 c38 -33 99 -114 91 -122 -3 -3 3 -8 13 -11 10 -3 26 -18 35 -33 10
-16 38 -50 63 -77 42 -45 45 -52 45 -103 0 -73 -35 -124 -96 -142 -44 -13
-104 -7 -104 10 0 6 -4 8 -9 4 -5 -3 -35 25 -66 62 -72 88 -71 86 -74 98 -1 6
-13 16 -27 23 -13 7 -24 17 -24 22 0 5 -6 15 -14 23 -85 84 -87 171 -6 255 18
20 31 23 81 21 49 -2 66 -7 92 -30z m4169 14 c32 -19 73 -96 61 -115 -3 -7 -1
-8 5 -4 7 4 12 4 12 1 0 -16 -54 -119 -73 -138 -12 -13 -35 -40 -52 -61 -16
-21 -35 -43 -40 -50 -6 -6 -21 -26 -34 -44 -61 -87 -114 -113 -188 -94 -45 13
-93 53 -93 80 0 7 -5 21 -12 32 -10 16 -9 28 4 62 8 24 21 42 28 40 6 -1 9 2
5 8 -8 13 60 91 71 82 4 -4 5 -2 1 3 -3 6 -3 16 1 22 17 27 91 111 131 150 40
39 50 43 94 43 28 0 62 -7 79 -17z m798 -1241 c31 -23 59 -77 60 -115 0 -43
-28 -94 -64 -116 -31 -19 -164 -60 -217 -66 -16 -2 -60 -14 -100 -25 -78 -23
-106 -20 -157 20 -39 31 -51 58 -52 116 0 37 6 59 20 77 29 36 80 65 126 71
21 3 54 10 73 16 19 5 37 8 39 5 3 -3 11 0 18 6 21 17 137 39 184 34 25 -3 56
-13 70 -23z m-5735 -22 c22 -5 65 -11 95 -14 78 -7 210 -36 243 -53 33 -17 69
-71 63 -96 -2 -9 0 -15 5 -11 10 6 11 -2 3 -33 -4 -14 -11 -20 -22 -16 -14 4
-15 3 -2 -5 27 -20 -15 -74 -70 -91 -34 -10 -141 -5 -225 12 -49 9 -99 19
-110 21 -11 1 -38 6 -61 10 -62 11 -108 67 -113 138 -2 38 24 92 40 82 5 -3 6
1 3 9 -6 18 12 33 56 45 45 13 48 13 95 2z m483 -1538 c17 -9 32 -20 32 -24 0
-3 8 -14 17 -23 10 -10 18 -39 21 -69 4 -52 4 -53 -47 -104 -29 -29 -59 -52
-68 -52 -8 0 -37 -11 -65 -25 -27 -14 -55 -25 -62 -25 -7 0 -40 -13 -72 -30
-116 -59 -185 -51 -235 28 -35 55 -37 91 -7 143 25 45 82 75 353 188 53 22 80
21 133 -7z"/>
<path d="M7812 10330 c-68 -5 -155 -14 -195 -20 -40 -6 -105 -15 -145 -20 -78
-10 -183 -37 -302 -77 -75 -25 -290 -127 -300 -142 -3 -4 -27 -22 -55 -41
-104 -70 -341 -330 -452 -495 -64 -97 -158 -265 -147 -265 3 0 1 -6 -5 -14
-24 -29 -83 -218 -113 -361 -31 -149 -31 -152 -32 -480 l-1 -330 37 -110 c88
-267 166 -372 291 -394 34 -6 84 -17 111 -24 48 -12 50 -15 62 -59 41 -160
173 -332 305 -397 101 -49 170 -63 274 -56 l90 7 33 -36 c23 -24 51 -41 86
-51 58 -17 89 -13 196 24 30 11 58 17 62 15 5 -3 8 -31 8 -63 0 -63 13 -83 79
-115 63 -30 104 -31 194 -2 127 40 144 70 150 256 3 87 9 119 35 190 39 104
72 171 141 278 60 92 72 97 147 63 68 -31 222 -63 268 -56 123 20 199 54 301
137 33 27 77 62 97 78 20 16 53 57 74 91 32 54 37 70 38 128 0 36 -3 95 -8
131 l-8 66 123 22 c68 12 169 28 224 37 140 23 194 40 263 85 199 128 295 471
219 782 -27 110 -69 210 -109 263 -13 16 -49 65 -81 108 -55 73 -271 300 -345
361 -87 72 -377 225 -687 361 -128 56 -194 76 -331 100 -164 28 -401 38 -592
25z m573 -115 c116 -17 245 -53 304 -85 20 -10 63 -30 96 -45 146 -64 253
-120 248 -129 -3 -5 -1 -6 5 -2 11 7 172 -70 172 -83 0 -4 6 -8 13 -8 33 0
169 -105 280 -216 180 -180 332 -391 351 -488 2 -13 12 -55 22 -94 35 -146 19
-358 -37 -482 -46 -99 -136 -195 -197 -208 -126 -28 -167 -36 -222 -41 -36 -4
-67 -11 -68 -15 -2 -5 -8 -7 -12 -4 -14 9 -242 -36 -268 -52 -13 -8 -30 -29
-38 -48 -11 -28 -11 -41 0 -86 8 -30 12 -57 10 -61 -2 -3 0 -9 5 -12 5 -3 6
-34 4 -68 -7 -78 -32 -117 -118 -182 -36 -28 -65 -53 -65 -58 0 -4 -7 -8 -15
-8 -8 0 -15 -4 -15 -9 0 -7 -45 -32 -119 -65 -41 -19 -251 -12 -251 8 0 5 -3
7 -6 3 -4 -3 -19 0 -34 8 -15 8 -30 11 -34 8 -3 -4 -6 -1 -6 6 0 7 -4 9 -10 6
-5 -3 -10 -2 -10 3 0 5 -7 9 -15 10 -8 1 -22 3 -30 4 -8 1 -15 5 -15 8 0 4
-13 7 -29 6 -27 -1 -81 -33 -81 -48 0 -10 -71 -121 -81 -128 -11 -8 -120 -222
-115 -227 2 -3 -7 -32 -21 -66 -32 -82 -42 -137 -44 -246 -1 -49 -4 -90 -8
-89 -3 1 -23 -6 -43 -15 -39 -18 -93 -21 -146 -11 l-31 6 -3 149 -3 148 -83
-63 c-90 -68 -154 -96 -219 -96 -39 0 -49 6 -100 58 l-58 57 -45 -12 c-149
-39 -316 10 -418 122 -29 31 -52 60 -52 65 0 5 -6 15 -13 22 -18 18 -67 143
-67 171 0 45 -20 96 -38 96 -9 0 -64 11 -121 25 -58 14 -108 23 -113 20 -19
-12 -114 91 -123 133 -2 10 -12 36 -23 58 -11 22 -33 90 -50 151 -29 110 -30
115 -29 360 0 268 6 353 37 509 11 55 22 112 25 126 2 15 11 44 19 64 9 21 18
48 20 60 5 25 84 197 94 205 4 3 8 11 10 19 12 56 287 410 313 403 6 -1 8 1 5
6 -3 5 37 51 89 101 52 51 95 89 95 85 0 -4 7 1 15 12 8 10 15 16 15 12 0 -5
8 -1 18 8 36 32 94 64 105 58 7 -4 9 -4 5 1 -12 13 183 95 263 110 12 2 58 13
103 25 44 11 104 22 131 25 28 2 100 9 160 15 61 5 130 12 155 14 105 9 450
-3 555 -19z"/>
<path d="M8236 9650 c-127 -20 -247 -120 -280 -233 -48 -166 8 -334 142 -428
28 -20 48 -40 44 -44 -4 -5 -2 -5 5 -1 7 4 23 0 35 -8 13 -8 57 -28 98 -45
107 -43 168 -75 201 -107 25 -24 29 -35 29 -78 -1 -80 -50 -122 -154 -133 -84
-8 -159 23 -228 97 l-56 61 -103 -60 c-57 -32 -105 -64 -107 -69 -1 -5 19 -38
45 -73 59 -78 143 -137 244 -170 63 -20 92 -24 199 -23 140 1 206 18 290 76
180 124 200 397 42 557 -31 31 -55 60 -54 64 2 5 -2 6 -7 2 -6 -3 -32 8 -58
24 -26 16 -82 43 -123 61 -192 81 -233 113 -234 185 -1 42 3 50 38 82 36 34
41 35 96 30 63 -5 102 -27 135 -77 25 -37 29 -36 144 41 l91 61 -17 30 c-28
47 -102 116 -152 141 -25 12 -48 24 -51 27 -6 6 -17 7 -120 14 -41 2 -101 1
-134 -4z"/>
<path d="M7450 9169 c0 -414 -2 -484 -16 -518 -18 -45 -45 -67 -97 -76 -39 -8
-111 11 -102 26 4 5 0 6 -7 4 -14 -6 -49 33 -80 90 -9 16 -17 24 -18 18 0 -7
-6 -13 -14 -13 -7 0 -19 -6 -25 -14 -18 -21 -88 -56 -97 -48 -4 4 -4 2 -1 -4
4 -7 -6 -17 -23 -24 -52 -21 -56 -35 -25 -82 16 -24 28 -48 28 -55 0 -7 2 -11
5 -9 2 3 28 -15 57 -39 72 -58 149 -86 258 -93 65 -3 104 0 152 13 35 9 68 17
72 18 4 0 13 5 18 9 52 43 104 76 110 70 5 -4 5 -2 1 5 -4 7 5 31 19 54 50 79
55 132 55 657 l0 482 -112 1 c-62 0 -123 2 -135 3 l-23 3 0 -478z"/>
</g>
</svg>
